<?xml version="1.0" standalone="no"?>
<!DOCTYPE svg PUBLIC "-//W3C//DTD SVG 20010904//EN"
 "http://www.w3.org/TR/2001/REC-SVG-20010904/DTD/svg10.dtd">
<svg version="1.0" xmlns="http://www.w3.org/2000/svg"
 width="1024.000000pt" height="1024.000000pt" viewBox="0 0 1024.000000 1024.000000"
 preserveAspectRatio="xMidYMid meet">
<metadata>
Created by potrace 1.16, written by Peter Selinger 2001-2019
</metadata>
<g transform="translate(0.000000,1024.000000) scale(0.100000,-0.100000)"
fill="#000000" stroke="none">
<path d="M5875 8340 c-344 -63 -549 -100 -557 -100 -4 0 -8 -511 -8 -1135 0
-624 3 -1135 6 -1135 4 0 36 26 73 58 145 128 460 380 612 491 33 23 37 32 43
85 3 32 6 443 6 912 0 677 -3 854 -12 853 -7 -1 -80 -13 -163 -29z"/>
<path d="M6290 7229 c0 -31 -4 -48 -10 -44 -6 4 -7 11 -4 17 4 7 2 8 -4 4 -7
-4 -12 -15 -13 -24 0 -14 -2 -13 -9 3 -6 13 -9 15 -9 5 -1 -13 -2 -13 -11 0
-8 12 -10 12 -11 -5 0 -18 -1 -19 -8 -2 -4 10 -11 17 -16 15 -6 -2 -13 11 -16
27 -6 26 -7 24 -8 -15 -1 -65 -40 -434 -51 -499 -6 -30 -10 -69 -10 -87 l0
-33 94 67 95 67 0 278 c1 152 -1 277 -4 277 -3 0 -5 -23 -5 -51z"/>
<path d="M4422 5949 l-2 -1126 23 3 c195 30 490 95 632 140 l53 17 -2 81 c-1
65 -5 87 -21 107 -11 15 -125 166 -254 337 -129 171 -238 309 -244 305 -6 -3
-7 -1 -3 5 6 10 -9 33 -94 145 -15 19 -18 27 -8 27 13 0 116 101 149 144 12
17 12 19 -1 11 -8 -6 -24 -10 -35 -10 -13 0 -20 -7 -20 -18 0 -10 -8 -23 -18
-28 -9 -6 -15 -14 -12 -19 3 -5 1 -11 -5 -15 -5 -3 -10 -1 -10 5 0 6 -5 8 -10
5 -6 -4 -8 -10 -5 -15 3 -4 -1 -13 -9 -19 -20 -17 -28 9 -10 30 12 13 12 16
-1 16 -8 0 -13 -3 -10 -5 3 -3 -3 -14 -12 -25 -10 -11 -12 -17 -5 -13 13 8 17
-6 5 -18 -5 -4 -8 -29 -9 -56 0 -41 2 -46 14 -34 18 19 23 18 15 -3 -3 -10 -3
-15 2 -11 13 13 35 -25 23 -39 -7 -9 -7 -13 1 -13 6 0 11 5 11 11 0 5 5 7 10
4 6 -4 7 -11 4 -17 -4 -6 -2 -8 3 -5 6 4 14 0 17 -9 3 -8 2 -12 -4 -9 -6 3
-10 2 -10 -3 0 -8 50 -56 60 -57 16 -1 28 -18 28 -40 0 -13 -5 -22 -10 -19 -6
4 -5 -3 1 -14 8 -15 8 -22 -2 -25 -9 -3 -7 -9 5 -18 9 -8 20 -27 24 -43 7 -28
6 -29 -26 -23 -18 4 -45 7 -61 7 -19 0 -29 5 -29 15 0 10 -11 15 -35 15 -24 0
-35 -5 -35 -15 0 -8 -4 -15 -10 -15 -5 0 -11 -12 -11 -27 -1 -22 -3 -20 -10
12 -4 22 -8 103 -8 180 -1 79 -5 145 -11 151 -6 6 -11 222 -13 584 -1 316 -3
68 -5 -551z"/>
<path d="M3334 6322 c-160 -119 -256 -202 -384 -331 -238 -240 -379 -453 -446
-676 -37 -124 -40 -296 -7 -400 81 -255 335 -450 714 -549 215 -56 359 -71
674 -71 178 0 331 5 395 13 162 20 364 53 375 62 6 4 80 31 165 60 147 50 298
106 365 135 17 8 73 31 125 53 279 116 428 191 758 379 31 18 64 36 72 40 8 3
17 9 20 13 3 3 18 13 33 23 15 10 25 23 21 29 -4 7 -3 8 5 4 7 -4 44 14 89 43
111 73 122 83 116 92 -3 5 1 7 8 4 17 -6 77 45 60 52 -13 5 -7 23 9 23 6 0 7
-4 4 -10 -14 -22 13 -7 67 38 32 26 70 57 85 69 16 13 21 20 12 17 -10 -3 -19
1 -22 10 -4 9 -12 16 -19 16 -9 0 -9 -3 2 -11 12 -8 10 -9 -7 -4 -16 4 -26 0
-35 -14 -7 -12 -19 -21 -26 -21 -7 0 -15 -7 -18 -15 -4 -8 -14 -15 -23 -15
-11 1 -7 7 13 22 16 12 39 31 51 42 93 89 94 89 88 67 -3 -11 -9 -21 -14 -21
-5 0 -9 -7 -9 -16 0 -11 8 -14 28 -12 15 2 26 8 25 15 -2 8 4 10 14 6 11 -4
14 -3 9 6 -10 16 22 51 40 44 8 -3 14 1 14 9 0 8 9 23 20 33 22 19 18 37 -6
28 -8 -3 -13 -8 -10 -11 8 -7 -13 -42 -26 -42 -6 0 -3 9 7 20 20 22 8 28 -15
8 -12 -11 -12 -10 -2 3 20 26 69 44 85 30 19 -15 138 91 134 121 -1 11 4 22
11 24 7 1 8 0 2 -3 -13 -6 -13 -23 -1 -23 10 0 27 39 23 52 -1 4 4 5 11 2 7
-2 30 14 52 36 21 22 35 40 30 40 -4 0 -2 8 6 18 44 55 33 59 -19 8 -34 -33
-58 -64 -55 -69 4 -6 1 -7 -6 -3 -15 10 -53 -23 -44 -38 3 -6 3 -8 -2 -4 -11
11 -36 -12 -28 -25 3 -5 1 -7 -4 -4 -6 4 -17 -1 -24 -10 -12 -14 -12 -16 0 -8
10 5 12 4 7 -4 -4 -6 -11 -9 -16 -6 -8 5 -145 -99 -251 -188 -14 -12 -28 -22
-31 -22 -2 0 -47 -27 -99 -61 -52 -33 -115 -73 -141 -89 -26 -16 -44 -33 -41
-39 3 -5 1 -6 -5 -2 -6 4 -41 -11 -77 -33 -36 -21 -62 -41 -58 -43 4 -3 2 -3
-4 -2 -19 5 -44 -7 -37 -17 3 -5 2 -8 -3 -7 -16 5 -252 -115 -246 -125 3 -6 1
-7 -5 -3 -6 3 -37 -5 -69 -20 -1022 -455 -2105 -574 -2678 -294 -379 185 -473
519 -263 934 90 180 186 305 400 522 81 83 148 153 148 157 0 18 -33 1 -116
-61z"/>
<path d="M3117 5777 c-8 -12 -30 -54 -50 -92 -166 -331 -86 -620 214 -767 106
-53 241 -92 369 -108 88 -10 156 -12 130 -3 -67 23 -254 101 -290 121 -165 90
-287 234 -335 397 -27 92 -18 279 21 413 6 20 4 22 -19 18 -22 -4 -25 -1 -22
20 3 30 1 30 -18 1z"/>
<path d="M5977 5704 c-21 -19 -43 -32 -49 -28 -7 4 -8 3 -4 -4 9 -15 -44 -74
-61 -68 -15 6 -27 -10 -14 -19 13 -7 -62 -76 -86 -80 -10 -1 -26 2 -37 7 -13
7 -16 7 -12 -1 10 -15 -7 -14 -23 2 -10 9 -10 7 0 -11 8 -13 20 -20 29 -17 10
3 9 1 -3 -9 -9 -7 -15 -20 -12 -28 8 -21 -17 -40 -35 -26 -12 8 -12 9 2 4 20
-6 30 5 19 22 -3 6 -17 9 -29 5 -12 -3 -19 -10 -15 -16 4 -6 0 -8 -10 -4 -9 3
-18 0 -21 -9 -7 -19 -26 -18 -26 1 0 19 -66 21 -74 3 -5 -10 -7 -10 -12 0 -4
8 -29 12 -75 12 -63 0 -69 -2 -69 -21 0 -18 -5 -20 -47 -18 -41 3 -48 1 -50
-16 -3 -20 -3 -19 6 0 5 11 10 14 10 7 1 -7 -6 -27 -15 -44 -14 -28 -15 -33
-2 -42 8 -6 16 -15 16 -21 1 -5 8 -10 14 -10 7 0 13 -7 13 -15 0 -24 56 -100
69 -93 6 3 8 3 4 -2 -8 -8 28 -65 41 -65 14 0 120 133 114 143 -3 6 -1 7 4 4
6 -4 26 10 43 31 18 20 87 93 154 162 274 282 340 355 243 264z"/>
<path d="M6180 4684 c-548 -278 -1273 -484 -1882 -535 -81 -7 -145 -15 -143
-18 2 -3 -43 -5 -98 -4 -86 1 -93 0 -47 -7 59 -8 118 -28 88 -29 -10 -1 -18
-5 -18 -11 0 -5 -10 -9 -22 -9 -13 1 -32 -2 -42 -6 -15 -7 -17 -5 -11 6 6 11
5 12 -6 2 -7 -7 -31 -13 -53 -13 -21 0 -37 -2 -35 -4 19 -18 481 -23 644 -7
410 41 767 125 1135 268 239 93 658 312 643 336 -3 6 -1 7 5 3 6 -4 20 2 31
13 11 11 22 17 25 14 5 -5 96 56 96 64 0 5 -17 -5 -52 -30 -14 -11 -37 -20
-50 -21 -13 -1 -22 -6 -21 -12 1 -5 -7 -10 -17 -10 -12 0 -17 6 -14 19 2 11 0
17 -3 13 -4 -4 -8 -14 -9 -22 -4 -26 -13 -44 -22 -44 -5 0 -23 13 -42 30 l-33
30 36 15 c19 8 38 19 42 25 8 13 19 18 -125 -56z"/>
<path d="M1970 3429 c-190 -24 -371 -140 -446 -284 -54 -102 -68 -160 -68
-270 0 -268 156 -468 425 -542 48 -13 98 -18 194 -17 111 1 142 5 210 27 44
15 106 43 137 62 l58 36 -51 76 -51 75 -31 -30 c-41 -40 -112 -69 -198 -84
-178 -29 -377 61 -450 205 -29 56 -52 173 -44 227 16 115 55 191 134 263 71
63 142 89 263 95 114 5 202 -16 281 -69 26 -17 51 -29 54 -25 3 3 23 34 44 68
l38 63 -22 19 c-41 35 -145 77 -239 97 -99 20 -135 21 -238 8z"/>
<path d="M4698 3253 l-3 -108 -72 -3 -73 -3 0 -69 0 -70 69 0 69 0 7 -242 c3
-134 11 -260 17 -280 24 -82 99 -140 204 -157 108 -16 246 14 252 57 3 18 -22
104 -34 121 -2 2 -24 -7 -49 -19 -89 -43 -176 -9 -195 76 -5 21 -10 130 -10
242 l0 202 130 0 130 0 0 70 0 69 -127 3 -128 3 -3 108 -3 107 -89 0 -89 0 -3
-107z"/>
<path d="M6459 3198 c0 -2 -2 -30 -4 -63 -2 -33 -6 -85 -9 -116 -5 -51 -4 -57
17 -68 14 -8 16 -10 3 -6 -10 3 -25 0 -34 -7 -12 -11 -16 -11 -20 0 -3 10 -7
10 -18 1 -11 -9 -14 -8 -14 4 0 9 -5 19 -12 23 -7 5 -9 2 -4 -7 4 -8 1 -5 -8
5 -8 10 -17 24 -19 30 -2 6 -8 8 -12 4 -22 -21 121 -146 153 -133 7 2 11 1 8
-4 -5 -8 93 -38 274 -85 143 -37 190 -75 190 -156 0 -41 -5 -55 -31 -85 -18
-20 -28 -39 -24 -43 4 -4 10 -1 12 6 3 6 9 10 14 6 5 -3 9 3 9 13 0 15 2 16
11 3 8 -12 9 -11 4 6 -3 14 1 28 11 38 22 23 23 102 1 119 -10 6 -19 27 -21
45 -3 31 7 44 17 20 4 -10 6 -10 6 0 1 14 37 16 46 2 3 -5 15 -10 26 -10 13 0
18 -4 13 -12 -4 -7 -3 -8 4 -4 31 19 -9 60 -49 51 -17 -4 -29 -2 -29 3 0 6 -9
8 -20 5 -11 -3 -20 -9 -20 -13 0 -4 -22 -7 -49 -6 -27 0 -45 4 -39 7 6 4 5 9
-3 13 -8 3 -2 4 13 1 15 -3 29 -1 32 3 2 4 -27 8 -66 7 -38 0 -72 4 -75 8 -3
5 -12 6 -22 3 -12 -5 -11 -2 3 9 11 8 23 15 28 15 4 0 8 6 8 13 0 15 -78 38
-86 26 -3 -5 4 -9 14 -9 11 0 22 -6 25 -14 5 -11 0 -13 -23 -6 -41 12 -51 20
-44 33 5 8 3 8 -7 0 -7 -7 -20 -13 -28 -13 -14 0 -14 1 -1 10 13 8 13 10 -2
10 -9 0 -20 -4 -23 -10 -11 -18 -21 -10 -23 20 -2 27 1 30 28 30 23 0 28 4 23
16 -4 11 0 15 13 14 10 -1 33 -1 49 0 24 1 18 5 -31 19 -71 20 -129 54 -151
87 -11 18 -14 41 -11 84 3 45 1 60 -9 60 -7 0 -13 -1 -14 -2z"/>
<path d="M2883 3149 c-106 -18 -204 -71 -265 -144 -127 -151 -124 -400 7 -552
75 -87 201 -137 350 -137 102 -1 162 13 247 55 126 64 208 207 208 365 0 280
-243 464 -547 413z m179 -159 c104 -32 166 -112 176 -225 10 -127 -54 -243
-156 -282 -66 -25 -154 -23 -217 5 -63 29 -90 55 -123 117 -23 43 -27 61 -26
130 3 146 68 233 201 264 58 14 76 13 145 -9z"/>
<path d="M3991 3149 c-63 -11 -145 -50 -183 -87 l-28 -26 0 52 0 52 -90 0 -90
0 0 -405 0 -405 95 0 95 0 0 264 0 264 33 43 c18 25 55 55 86 71 95 50 235 32
289 -36 35 -46 43 -116 41 -366 l-2 -235 96 -3 97 -3 0 258 c-1 273 -9 343
-48 419 -58 113 -222 173 -391 143z"/>
<path d="M5565 3149 c-85 -13 -236 -66 -249 -87 -7 -12 64 -117 77 -115 7 1
44 14 82 29 59 23 86 27 175 28 94 1 110 -2 147 -23 48 -27 83 -87 83 -139 l0
-32 -174 0 c-143 0 -185 -3 -235 -19 -89 -28 -147 -65 -175 -114 -33 -58 -39
-97 -26 -164 10 -48 20 -66 59 -104 68 -68 139 -92 266 -92 118 0 193 23 256
80 l39 35 0 -51 0 -51 90 0 90 0 0 263 c0 293 -9 361 -56 428 -34 49 -99 94
-167 114 -64 19 -207 26 -282 14z m315 -519 c0 -59 -1 -62 -47 -108 -56 -55
-101 -72 -197 -72 -67 0 -125 17 -158 47 -24 22 -33 77 -18 113 27 65 74 79
268 80 l152 0 0 -60z"/>
<path d="M7196 3118 c18 -58 161 -338 168 -331 5 4 6 0 3 -9 -3 -9 0 -30 8
-45 7 -15 27 -59 45 -97 17 -38 34 -66 37 -62 4 3 1 12 -5 18 -17 17 -16 43 1
32 7 -5 6 -2 -3 6 -26 25 -52 68 -46 78 3 5 -3 18 -14 30 -11 12 -17 28 -14
36 4 9 0 18 -10 22 -9 3 -13 10 -10 15 3 5 0 9 -6 9 -7 0 -9 9 -5 23 4 15 3
18 -3 9 -7 -11 -10 -10 -14 5 -3 10 -9 27 -14 37 -5 14 -4 17 4 12 8 -5 10 -2
5 9 -4 13 -8 14 -14 4 -5 -9 -11 -4 -19 17 -7 16 -18 43 -26 59 -8 17 -12 38
-9 47 4 11 -1 20 -15 28 -15 8 -20 18 -17 31 3 10 1 17 -3 14 -5 -3 -11 -1
-15 5 -4 6 22 10 73 10 l80 0 16 -40 c9 -22 21 -40 27 -40 8 0 8 -5 -1 -15 -7
-9 -10 -18 -6 -22 3 -3 6 -1 6 6 0 7 5 9 10 6 6 -4 8 -11 5 -16 -6 -9 24 -71
37 -77 4 -2 3 -15 -3 -28 -13 -37 -11 -43 7 -14 8 14 13 17 10 8 -7 -24 3 -50
17 -41 6 4 8 0 4 -11 -4 -9 -3 -15 2 -12 12 8 40 -54 33 -72 -4 -11 -2 -13 8
-7 10 6 12 4 7 -9 -5 -11 -3 -15 5 -10 7 5 9 -1 5 -17 -3 -13 -2 -31 4 -39 8
-11 9 -9 4 10 -4 19 -1 17 14 -10 11 -19 20 -45 21 -57 0 -12 5 -25 10 -28 17
-11 11 29 -12 76 -30 62 -133 288 -176 387 l-36 82 -94 0 c-92 0 -93 0 -86
-22z"/>
<path d="M8177 2993 c-26 -50 -30 -95 -12 -148 21 -63 47 -90 111 -121 52 -25
272 -79 282 -69 7 7 -3 16 -23 19 -9 1 -21 9 -26 17 -6 10 -9 10 -9 2 0 -18
-45 -16 -63 2 -8 8 -17 11 -21 8 -3 -4 -6 -1 -6 5 0 7 -7 12 -15 12 -8 0 -15
-4 -15 -10 0 -5 -5 -10 -11 -10 -5 0 -7 5 -3 11 4 8 0 9 -15 4 -16 -5 -20 -3
-15 9 3 9 1 16 -5 16 -6 0 -11 -4 -11 -10 0 -6 -9 -5 -24 1 -14 7 -22 17 -19
25 3 9 -2 14 -17 14 -13 0 -19 -4 -14 -12 4 -7 3 -8 -5 -4 -9 6 -9 11 0 22 10
12 9 13 -4 8 -12 -4 -18 2 -22 23 -11 45 -13 50 -15 23 -1 -23 -2 -23 -15 9
-19 41 -19 46 -1 32 11 -9 15 -7 19 8 3 12 -1 22 -9 25 -9 3 -13 19 -12 45 1
35 3 38 14 23 11 -15 12 -14 10 11 -5 40 -13 43 -29 10z"/>
<path d="M6716 2942 c-5 -9 56 -23 99 -23 18 0 17 -2 -5 -14 -31 -18 -64 -21
-40 -4 12 8 11 9 -6 5 -11 -4 -35 1 -52 10 -18 8 -38 13 -45 11 -7 -3 -5 -6 6
-6 19 -1 23 -17 6 -23 -6 -2 8 -3 30 -3 23 0 47 -7 58 -18 21 -18 73 -23 73
-7 0 6 -4 10 -10 10 -5 0 -10 5 -10 10 0 15 73 11 94 -5 11 -8 27 -15 37 -15
10 0 16 -7 15 -17 0 -10 6 -19 14 -19 33 -3 34 -6 5 -19 -16 -8 -25 -14 -18
-15 22 0 62 23 56 33 -3 6 -1 7 6 3 9 -6 9 -12 -1 -24 -7 -10 -9 -14 -4 -10
13 11 59 -62 47 -76 -10 -12 -15 -61 -12 -121 4 -62 19 -14 20 61 1 49 5 63
19 69 12 4 14 3 6 -5 -7 -7 -8 -28 -2 -63 15 -94 14 -122 -4 -111 -9 5 -8 2 1
-9 12 -15 12 -22 0 -45 -18 -37 -50 -72 -65 -72 -6 0 -15 -7 -18 -16 -3 -8
-11 -12 -17 -8 -8 5 -9 3 -4 -6 6 -9 1 -10 -16 -5 -19 5 -21 4 -9 -4 12 -9 9
-11 -13 -11 -19 0 -26 -4 -21 -12 5 -8 0 -9 -14 -6 -12 4 -20 2 -17 -2 8 -12
-48 -22 -80 -14 -18 4 -26 3 -22 -3 4 -6 -7 -10 -24 -11 -17 0 -34 -4 -38 -8
-12 -14 131 7 184 27 76 28 160 99 187 157 31 68 30 180 -2 245 -13 26 -29 46
-36 43 -6 -2 -11 3 -10 12 1 22 -141 93 -232 115 -37 10 -77 20 -88 23 -12 3
-24 1 -28 -4z"/>
<path d="M8160 2473 c-14 -31 -26 -59 -28 -63 -5 -13 108 -62 147 -63 21 -1
37 -5 35 -9 -8 -12 106 -21 209 -16 107 6 141 13 131 30 -4 6 1 8 13 4 27 -8
113 49 113 76 0 13 4 17 13 12 9 -6 9 -5 0 8 -7 8 -11 18 -8 21 3 4 2 4 -2 1
-8 -5 -9 -9 -12 -35 0 -5 -7 -7 -13 -3 -10 6 -10 4 0 -8 10 -13 10 -17 -5 -23
-10 -5 -22 -7 -26 -6 -5 1 -5 -4 -1 -10 5 -9 2 -10 -10 -6 -9 4 -15 3 -12 -2
9 -13 -29 -20 -49 -8 -13 7 -16 6 -11 -2 4 -6 0 -11 -11 -11 -15 0 -16 -2 -3
-10 10 -7 2 -8 -29 -4 -26 4 -42 3 -38 -2 7 -13 -148 -7 -173 6 -10 5 -34 11
-52 11 l-33 1 30 8 c20 5 23 8 10 9 -28 1 -66 -10 -60 -18 2 -4 -10 -5 -28 -2
-31 4 -31 5 -7 12 17 5 19 7 7 8 -10 1 -16 5 -13 9 3 4 -10 7 -27 6 -18 -2
-41 0 -51 3 -18 5 -17 7 7 20 29 15 32 24 18 52 -6 11 -6 22 1 32 8 11 8 9 3
-6 -5 -15 -3 -17 6 -8 8 8 19 8 41 1 16 -6 31 -8 34 -5 3 3 -8 8 -25 12 -16 3
-35 13 -42 21 -18 22 -22 18 -49 -43z"/>
</g>
</svg>
